G04 Layer: TopLayer*
G04 EasyEDA v6.5.54, 2026-09-21 19:42:41*
G04 514c6cc1849444d89c4331f6548c3519,10*
G04 Gerber Generator version 0.2*
G04 Scale: 100 percent, Rotated: No, Reflected: No *
G04 Dimensions in millimeters *
G04 leading zeros omitted , absolute positions ,4 integer and 5 decimal *
%FSLAX45Y45*%
%MOMM*%

%ADD10C,0.2540*%
%ADD11O,2.299995X1.199998*%
%ADD12R,2.6000X2.6000*%
%ADD13O,3.999992X1.699997*%
%ADD14C,1.5240*%
%ADD15C,1.6000*%
%ADD16C,1.4999*%
%ADD17C,0.0149*%
%ADD18C,0.6096*%

%LPD*%
D10*
X2961998Y1061999D02*
G01*
X3088998Y1061999D01*
X3088998Y1061999D02*
G01*
X4010992Y1061999D01*
X4072994Y999997D01*
X2961998Y553999D02*
G01*
X3088998Y553999D01*
X7266790Y-487502D02*
G01*
X6352288Y426999D01*
X2805102Y426999D01*
X2644498Y266395D01*
X1437998Y45999D02*
G01*
X1310998Y45999D01*
X2961998Y807999D02*
G01*
X3088998Y807999D01*
X2961998Y299999D02*
G01*
X3088998Y299999D01*
X1437998Y-208000D02*
G01*
X1374498Y-208000D01*
X1374498Y-208000D02*
G01*
X1310998Y-208000D01*
X1374498Y-208000D02*
G01*
X1932028Y349529D01*
X1932028Y504596D01*
X2089990Y504596D02*
G01*
X1932028Y504596D01*
X2961998Y45999D02*
G01*
X3088998Y45999D01*
X2961998Y-462000D02*
G01*
X3088998Y-462000D01*
X2961998Y-208000D02*
G01*
X3088998Y-208000D01*
X2644498Y71399D02*
G01*
X2745996Y172897D01*
X3265020Y172897D01*
D11*
G01*
X2644495Y71399D03*
G01*
X2644495Y266395D03*
D12*
G01*
X2089988Y504596D03*
D13*
G01*
X3088995Y1061999D03*
G01*
X3088995Y807999D03*
G01*
X3088995Y553999D03*
G01*
X3088995Y299999D03*
G01*
X3088995Y45999D03*
G01*
X3088995Y-208000D03*
G01*
X3088995Y-462000D03*
G01*
X1310995Y1061999D03*
G01*
X1310995Y807999D03*
G01*
X1310995Y553999D03*
G01*
X1310995Y299999D03*
G01*
X1310995Y45999D03*
G01*
X1310995Y-208000D03*
G01*
X1310995Y-462000D03*
D14*
G01*
X2272995Y2699994D03*
G01*
X2526995Y2699994D03*
G01*
X4072991Y999997D03*
G01*
X4326991Y999997D03*
G01*
X4072991Y4399991D03*
G01*
X4326991Y4399991D03*
G01*
X5972987Y2699994D03*
G01*
X6226987Y2699994D03*
D15*
G01*
X1291996Y5399989D03*
G01*
X1291996Y4399991D03*
G01*
X2307996Y5399989D03*
G01*
X2307996Y4399991D03*
G01*
X2815996Y5399989D03*
G01*
X2815996Y4399991D03*
G01*
X3323996Y5399989D03*
G01*
X3323996Y4399991D03*
G01*
X1799996Y5399989D03*
G01*
X1799996Y4399991D03*
D14*
G01*
X7266787Y-487502D03*
G01*
X7012787Y-487502D03*
G01*
X3799992Y2907995D03*
G01*
X3799992Y2653995D03*
G01*
X3799992Y2399995D03*
G01*
X4574692Y2399995D03*
G01*
X4574692Y2653995D03*
G01*
X4574692Y2907995D03*
D16*
G01*
X2961995Y-462000D03*
G01*
X1437995Y807999D03*
G01*
X1437995Y553999D03*
G01*
X1437995Y299999D03*
G01*
X1437995Y45999D03*
G01*
X1437995Y-208000D03*
G01*
X1437995Y-462000D03*
G01*
X1437995Y1061999D03*
G01*
X2961995Y-208000D03*
G01*
X2961995Y45999D03*
G01*
X2961995Y299999D03*
G01*
X2961995Y553999D03*
G01*
X2961995Y807999D03*
G01*
X2961995Y1061999D03*
D18*
G01*
X3265020Y172897D03*
G01*
X3465730Y331266D03*
M02*
