G04 Layer: BottomLayer*
G04 EasyEDA v6.5.54, 2026-09-21 19:42:41*
G04 514c6cc1849444d89c4331f6548c3519,10*
G04 Gerber Generator version 0.2*
G04 Scale: 100 percent, Rotated: No, Reflected: No *
G04 Dimensions in millimeters *
G04 leading zeros omitted , absolute positions ,4 integer and 5 decimal *
%FSLAX45Y45*%
%MOMM*%

%ADD10C,0.2540*%
%ADD11C,1.5240*%
%ADD12C,1.6000*%
%ADD13C,1.4999*%
%ADD14C,0.6096*%
%ADD15C,0.0137*%

%LPD*%
D10*
X2961998Y807999D02*
G01*
X2272997Y1496999D01*
X2272997Y2699994D01*
X2307998Y4399991D02*
G01*
X2307998Y2918993D01*
X2526997Y2699994D01*
X4326994Y999997D02*
G01*
X4326994Y2284374D01*
X3830373Y2780995D01*
X3774950Y2780995D01*
X2815998Y3739946D01*
X2815998Y4399991D01*
X2961998Y299999D02*
G01*
X2989277Y272719D01*
X3755163Y272719D01*
X4681628Y1199184D01*
X4681628Y2457704D01*
X4612337Y2526995D01*
X4541344Y2526995D01*
X4072994Y2995345D01*
X4072994Y4399991D01*
X3799994Y2907995D02*
G01*
X3799994Y4923993D01*
X3323998Y5399989D01*
X1437998Y-208000D02*
G01*
X1799998Y154000D01*
X1799998Y4399991D01*
X1799998Y4399991D02*
G01*
X2307998Y4907991D01*
X2307998Y5399989D01*
X4574694Y2399995D02*
G01*
X3968701Y3005988D01*
X3968701Y4922621D01*
X3373884Y5517438D01*
X1917448Y5517438D01*
X1799998Y5399989D01*
X3799994Y2653995D02*
G01*
X3099386Y1953387D01*
X3099386Y781329D01*
X2999056Y680999D01*
X2928978Y680999D01*
X2855292Y607313D01*
X2855292Y-355295D01*
X2961998Y-462000D01*
X3465730Y331266D02*
G01*
X3465730Y2065731D01*
X3799994Y2399995D01*
D11*
G01*
X2272995Y2699994D03*
G01*
X2526995Y2699994D03*
G01*
X4072991Y999997D03*
G01*
X4326991Y999997D03*
G01*
X4072991Y4399991D03*
G01*
X4326991Y4399991D03*
G01*
X5972987Y2699994D03*
G01*
X6226987Y2699994D03*
D12*
G01*
X1291996Y5399989D03*
G01*
X1291996Y4399991D03*
G01*
X2307996Y5399989D03*
G01*
X2307996Y4399991D03*
G01*
X2815996Y5399989D03*
G01*
X2815996Y4399991D03*
G01*
X3323996Y5399989D03*
G01*
X3323996Y4399991D03*
G01*
X1799996Y5399989D03*
G01*
X1799996Y4399991D03*
D11*
G01*
X7266787Y-487502D03*
G01*
X7012787Y-487502D03*
G01*
X3799992Y2907995D03*
G01*
X3799992Y2653995D03*
G01*
X3799992Y2399995D03*
G01*
X4574692Y2399995D03*
G01*
X4574692Y2653995D03*
G01*
X4574692Y2907995D03*
D13*
G01*
X2961995Y-462000D03*
G01*
X1437995Y807999D03*
G01*
X1437995Y553999D03*
G01*
X1437995Y299999D03*
G01*
X1437995Y45999D03*
G01*
X1437995Y-208000D03*
G01*
X1437995Y-462000D03*
G01*
X1437995Y1061999D03*
G01*
X2961995Y-208000D03*
G01*
X2961995Y45999D03*
G01*
X2961995Y299999D03*
G01*
X2961995Y553999D03*
G01*
X2961995Y807999D03*
G01*
X2961995Y1061999D03*
D14*
G01*
X3265020Y172897D03*
G01*
X3465730Y331266D03*
M02*
