G04 Layer: TopSilkscreenLayer*
G04 EasyEDA v6.5.54, 2026-09-21 19:42:41*
G04 514c6cc1849444d89c4331f6548c3519,10*
G04 Gerber Generator version 0.2*
G04 Scale: 100 percent, Rotated: No, Reflected: No *
G04 Dimensions in millimeters *
G04 leading zeros omitted , absolute positions ,4 integer and 5 decimal *
%FSLAX45Y45*%
%MOMM*%

%ADD10C,0.2032*%
%ADD11C,0.1524*%
%ADD12C,0.1219*%
%ADD13C,0.1500*%
%ADD14C,0.2540*%
%ADD15C,0.1270*%
%ADD16C,0.0100*%

%LPD*%
D10*
X1729231Y1905000D02*
G01*
X1599945Y1711197D01*
X1599945Y1905000D02*
G01*
X1729231Y1905000D01*
X1599945Y1711197D02*
G01*
X1729231Y1711197D01*
X1836420Y1840484D02*
G01*
X1817878Y1831086D01*
X1799589Y1812797D01*
X1790192Y1784857D01*
X1790192Y1766570D01*
X1799589Y1738884D01*
X1817878Y1720342D01*
X1836420Y1711197D01*
X1864105Y1711197D01*
X1882647Y1720342D01*
X1901189Y1738884D01*
X1910334Y1766570D01*
X1910334Y1784857D01*
X1901189Y1812797D01*
X1882647Y1831086D01*
X1864105Y1840484D01*
X1836420Y1840484D01*
X1971293Y1840484D02*
G01*
X1971293Y1711197D01*
X1971293Y1803400D02*
G01*
X1998979Y1831086D01*
X2017522Y1840484D01*
X2045208Y1840484D01*
X2063750Y1831086D01*
X2072893Y1803400D01*
X2072893Y1711197D01*
X2133854Y1784857D02*
G01*
X2244597Y1784857D01*
X2244597Y1803400D01*
X2235454Y1821942D01*
X2226309Y1831086D01*
X2207768Y1840484D01*
X2180081Y1840484D01*
X2161540Y1831086D01*
X2142997Y1812797D01*
X2133854Y1784857D01*
X2133854Y1766570D01*
X2142997Y1738884D01*
X2161540Y1720342D01*
X2180081Y1711197D01*
X2207768Y1711197D01*
X2226309Y1720342D01*
X2244597Y1738884D01*
X2361184Y1905000D02*
G01*
X2342641Y1895855D01*
X2324100Y1877313D01*
X2314956Y1858771D01*
X2305558Y1831086D01*
X2305558Y1784857D01*
X2314956Y1757171D01*
X2324100Y1738884D01*
X2342641Y1720342D01*
X2361184Y1711197D01*
X2398013Y1711197D01*
X2416556Y1720342D01*
X2434843Y1738884D01*
X2444241Y1757171D01*
X2453386Y1784857D01*
X2453386Y1831086D01*
X2444241Y1858771D01*
X2434843Y1877313D01*
X2416556Y1895855D01*
X2398013Y1905000D01*
X2361184Y1905000D01*
X2514345Y1840484D02*
G01*
X2514345Y1748028D01*
X2523743Y1720342D01*
X2542031Y1711197D01*
X2569718Y1711197D01*
X2588259Y1720342D01*
X2615945Y1748028D01*
X2615945Y1840484D02*
G01*
X2615945Y1711197D01*
X2704591Y1905000D02*
G01*
X2704591Y1748028D01*
X2713990Y1720342D01*
X2732277Y1711197D01*
X2750820Y1711197D01*
X2676906Y1840484D02*
G01*
X2741675Y1840484D01*
D11*
X2399995Y3145510D02*
G01*
X2399995Y3036544D01*
X2399995Y3145510D02*
G01*
X2436317Y3145510D01*
X2452065Y3140430D01*
X2462225Y3130016D01*
X2467559Y3119602D01*
X2472639Y3103854D01*
X2472639Y3077946D01*
X2467559Y3062452D01*
X2462225Y3052038D01*
X2452065Y3041624D01*
X2436317Y3036544D01*
X2399995Y3036544D01*
X2506929Y3124682D02*
G01*
X2517343Y3130016D01*
X2533091Y3145510D01*
X2533091Y3036544D01*
X4199991Y1445513D02*
G01*
X4199991Y1336547D01*
X4199991Y1445513D02*
G01*
X4236313Y1445513D01*
X4252061Y1440434D01*
X4262221Y1430020D01*
X4267555Y1419605D01*
X4272635Y1403857D01*
X4272635Y1377950D01*
X4267555Y1362455D01*
X4262221Y1352042D01*
X4252061Y1341628D01*
X4236313Y1336547D01*
X4199991Y1336547D01*
X4312259Y1419605D02*
G01*
X4312259Y1424686D01*
X4317339Y1435100D01*
X4322673Y1440434D01*
X4333087Y1445513D01*
X4353661Y1445513D01*
X4364075Y1440434D01*
X4369409Y1435100D01*
X4374489Y1424686D01*
X4374489Y1414271D01*
X4369409Y1403857D01*
X4358995Y1388363D01*
X4306925Y1336547D01*
X4379823Y1336547D01*
X4199991Y4845507D02*
G01*
X4199991Y4736541D01*
X4199991Y4845507D02*
G01*
X4236313Y4845507D01*
X4252061Y4840427D01*
X4262221Y4830013D01*
X4267555Y4819599D01*
X4272635Y4803851D01*
X4272635Y4777943D01*
X4267555Y4762449D01*
X4262221Y4752035D01*
X4252061Y4741621D01*
X4236313Y4736541D01*
X4199991Y4736541D01*
X4317339Y4845507D02*
G01*
X4374489Y4845507D01*
X4343501Y4803851D01*
X4358995Y4803851D01*
X4369409Y4798771D01*
X4374489Y4793691D01*
X4379823Y4777943D01*
X4379823Y4767529D01*
X4374489Y4752035D01*
X4364075Y4741621D01*
X4348581Y4736541D01*
X4333087Y4736541D01*
X4317339Y4741621D01*
X4312259Y4746701D01*
X4306925Y4757115D01*
X6099987Y3145510D02*
G01*
X6099987Y3036544D01*
X6099987Y3145510D02*
G01*
X6136309Y3145510D01*
X6152057Y3140430D01*
X6162217Y3130016D01*
X6167551Y3119602D01*
X6172631Y3103854D01*
X6172631Y3077946D01*
X6167551Y3062452D01*
X6162217Y3052038D01*
X6152057Y3041624D01*
X6136309Y3036544D01*
X6099987Y3036544D01*
X6258991Y3145510D02*
G01*
X6206921Y3072866D01*
X6284899Y3072866D01*
X6258991Y3145510D02*
G01*
X6258991Y3036544D01*
X1291996Y5650306D02*
G01*
X1291996Y5541340D01*
X1291996Y5650306D02*
G01*
X1338732Y5650306D01*
X1354226Y5645226D01*
X1359560Y5639892D01*
X1364640Y5629478D01*
X1364640Y5619064D01*
X1359560Y5608650D01*
X1354226Y5603570D01*
X1338732Y5598490D01*
X1291996Y5598490D01*
X1328318Y5598490D02*
G01*
X1364640Y5541340D01*
X1398930Y5629478D02*
G01*
X1409344Y5634812D01*
X1425092Y5650306D01*
X1425092Y5541340D01*
X2307996Y5650306D02*
G01*
X2307996Y5541340D01*
X2307996Y5650306D02*
G01*
X2354732Y5650306D01*
X2370226Y5645226D01*
X2375560Y5639892D01*
X2380640Y5629478D01*
X2380640Y5619064D01*
X2375560Y5608650D01*
X2370226Y5603570D01*
X2354732Y5598490D01*
X2307996Y5598490D01*
X2344318Y5598490D02*
G01*
X2380640Y5541340D01*
X2420264Y5624398D02*
G01*
X2420264Y5629478D01*
X2425344Y5639892D01*
X2430678Y5645226D01*
X2441092Y5650306D01*
X2461666Y5650306D01*
X2472080Y5645226D01*
X2477414Y5639892D01*
X2482494Y5629478D01*
X2482494Y5619064D01*
X2477414Y5608650D01*
X2467000Y5593156D01*
X2414930Y5541340D01*
X2487828Y5541340D01*
X2815996Y5650306D02*
G01*
X2815996Y5541340D01*
X2815996Y5650306D02*
G01*
X2862732Y5650306D01*
X2878226Y5645226D01*
X2883560Y5639892D01*
X2888640Y5629478D01*
X2888640Y5619064D01*
X2883560Y5608650D01*
X2878226Y5603570D01*
X2862732Y5598490D01*
X2815996Y5598490D01*
X2852318Y5598490D02*
G01*
X2888640Y5541340D01*
X2933344Y5650306D02*
G01*
X2990494Y5650306D01*
X2959506Y5608650D01*
X2975000Y5608650D01*
X2985414Y5603570D01*
X2990494Y5598490D01*
X2995828Y5582742D01*
X2995828Y5572328D01*
X2990494Y5556834D01*
X2980080Y5546420D01*
X2964586Y5541340D01*
X2949092Y5541340D01*
X2933344Y5546420D01*
X2928264Y5551500D01*
X2922930Y5561914D01*
X3323996Y5650306D02*
G01*
X3323996Y5541340D01*
X3323996Y5650306D02*
G01*
X3370732Y5650306D01*
X3386226Y5645226D01*
X3391560Y5639892D01*
X3396640Y5629478D01*
X3396640Y5619064D01*
X3391560Y5608650D01*
X3386226Y5603570D01*
X3370732Y5598490D01*
X3323996Y5598490D01*
X3360318Y5598490D02*
G01*
X3396640Y5541340D01*
X3483000Y5650306D02*
G01*
X3430930Y5577662D01*
X3508908Y5577662D01*
X3483000Y5650306D02*
G01*
X3483000Y5541340D01*
X1799996Y5650306D02*
G01*
X1799996Y5541340D01*
X1799996Y5650306D02*
G01*
X1846732Y5650306D01*
X1862226Y5645226D01*
X1867560Y5639892D01*
X1872640Y5629478D01*
X1872640Y5619064D01*
X1867560Y5608650D01*
X1862226Y5603570D01*
X1846732Y5598490D01*
X1799996Y5598490D01*
X1836318Y5598490D02*
G01*
X1872640Y5541340D01*
X1906930Y5629478D02*
G01*
X1917344Y5634812D01*
X1933092Y5650306D01*
X1933092Y5541340D01*
X1972462Y5624398D02*
G01*
X1972462Y5629478D01*
X1977796Y5639892D01*
X1982876Y5645226D01*
X1993290Y5650306D01*
X2014118Y5650306D01*
X2024532Y5645226D01*
X2029612Y5639892D01*
X2034946Y5629478D01*
X2034946Y5619064D01*
X2029612Y5608650D01*
X2019198Y5593156D01*
X1967382Y5541340D01*
X2040026Y5541340D01*
X4168292Y3518611D02*
G01*
X4168292Y3440633D01*
X4173372Y3425139D01*
X4183786Y3414725D01*
X4199534Y3409645D01*
X4209948Y3409645D01*
X4225442Y3414725D01*
X4235856Y3425139D01*
X4240936Y3440633D01*
X4240936Y3518611D01*
X4342790Y3482289D02*
G01*
X4337710Y3466795D01*
X4327296Y3456381D01*
X4311802Y3451047D01*
X4306468Y3451047D01*
X4290974Y3456381D01*
X4280560Y3466795D01*
X4275226Y3482289D01*
X4275226Y3487369D01*
X4280560Y3503117D01*
X4290974Y3513531D01*
X4306468Y3518611D01*
X4311802Y3518611D01*
X4327296Y3513531D01*
X4337710Y3503117D01*
X4342790Y3482289D01*
X4342790Y3456381D01*
X4337710Y3430219D01*
X4327296Y3414725D01*
X4311802Y3409645D01*
X4301388Y3409645D01*
X4285640Y3414725D01*
X4280560Y3425139D01*
X3788511Y249199D02*
G01*
X3710533Y249199D01*
X3695039Y244119D01*
X3684625Y233705D01*
X3679545Y217957D01*
X3679545Y207543D01*
X3684625Y192049D01*
X3695039Y181635D01*
X3710533Y176555D01*
X3788511Y176555D01*
X3767683Y142265D02*
G01*
X3773017Y131851D01*
X3788511Y116103D01*
X3679545Y116103D01*
X3788511Y55905D02*
G01*
X3783431Y71399D01*
X3773017Y76733D01*
X3762603Y76733D01*
X3752189Y71399D01*
X3746855Y61239D01*
X3741775Y40411D01*
X3736695Y24663D01*
X3726281Y14249D01*
X3715867Y9169D01*
X3700119Y9169D01*
X3689705Y14249D01*
X3684625Y19583D01*
X3679545Y35077D01*
X3679545Y55905D01*
X3684625Y71399D01*
X3689705Y76733D01*
X3700119Y81813D01*
X3715867Y81813D01*
X3726281Y76733D01*
X3736695Y66319D01*
X3741775Y50825D01*
X3746855Y29997D01*
X3752189Y19583D01*
X3762603Y14249D01*
X3773017Y14249D01*
X3783431Y19583D01*
X3788511Y35077D01*
X3788511Y55905D01*
D12*
X2352395Y-488416D02*
G01*
X2352395Y-419074D01*
X2347823Y-405104D01*
X2338425Y-395960D01*
X2324709Y-391388D01*
X2315565Y-391388D01*
X2301595Y-395960D01*
X2292451Y-405104D01*
X2287625Y-419074D01*
X2287625Y-488416D01*
X2192629Y-474446D02*
G01*
X2201773Y-483590D01*
X2215743Y-488416D01*
X2234285Y-488416D01*
X2248001Y-483590D01*
X2257145Y-474446D01*
X2257145Y-465302D01*
X2252573Y-455904D01*
X2248001Y-451332D01*
X2238857Y-446760D01*
X2211171Y-437616D01*
X2201773Y-432790D01*
X2197201Y-428218D01*
X2192629Y-419074D01*
X2192629Y-405104D01*
X2201773Y-395960D01*
X2215743Y-391388D01*
X2234285Y-391388D01*
X2248001Y-395960D01*
X2257145Y-405104D01*
X2162149Y-488416D02*
G01*
X2162149Y-391388D01*
X2162149Y-488416D02*
G01*
X2120493Y-488416D01*
X2106777Y-483590D01*
X2102205Y-479018D01*
X2097379Y-469874D01*
X2097379Y-460730D01*
X2102205Y-451332D01*
X2106777Y-446760D01*
X2120493Y-442188D01*
X2162149Y-442188D02*
G01*
X2120493Y-442188D01*
X2106777Y-437616D01*
X2102205Y-432790D01*
X2097379Y-423646D01*
X2097379Y-409930D01*
X2102205Y-400532D01*
X2106777Y-395960D01*
X2120493Y-391388D01*
X2162149Y-391388D01*
D13*
X3541684Y525475D02*
G01*
X3550828Y516331D01*
X3564544Y512013D01*
X3582578Y512013D01*
X3596294Y516331D01*
X3605438Y525475D01*
X3605438Y534619D01*
X3600866Y543763D01*
X3596294Y548335D01*
X3587150Y552907D01*
X3559972Y561797D01*
X3550828Y566369D01*
X3546256Y570941D01*
X3541684Y580085D01*
X3541684Y593801D01*
X3550828Y602691D01*
X3564544Y607263D01*
X3582578Y607263D01*
X3596294Y602691D01*
X3605438Y593801D01*
X3511712Y512013D02*
G01*
X3511712Y607263D01*
X3511712Y512013D02*
G01*
X3479962Y512013D01*
X3466246Y516331D01*
X3457102Y525475D01*
X3452784Y534619D01*
X3448212Y548335D01*
X3448212Y570941D01*
X3452784Y584657D01*
X3457102Y593801D01*
X3466246Y602691D01*
X3479962Y607263D01*
X3511712Y607263D01*
X3381664Y512013D02*
G01*
X3418240Y607263D01*
X3381664Y512013D02*
G01*
X3345342Y607263D01*
X3404524Y575513D02*
G01*
X3359058Y575513D01*
X3521872Y765571D02*
G01*
X3530762Y756427D01*
X3544478Y751855D01*
X3562766Y751855D01*
X3576228Y756427D01*
X3585372Y765571D01*
X3585372Y774715D01*
X3580800Y783605D01*
X3576228Y788177D01*
X3567338Y792749D01*
X3539906Y801893D01*
X3530762Y806465D01*
X3526190Y811037D01*
X3521872Y820181D01*
X3521872Y833643D01*
X3530762Y842787D01*
X3544478Y847359D01*
X3562766Y847359D01*
X3576228Y842787D01*
X3585372Y833643D01*
X3423574Y774715D02*
G01*
X3428146Y765571D01*
X3437290Y756427D01*
X3446180Y751855D01*
X3464468Y751855D01*
X3473612Y756427D01*
X3482756Y765571D01*
X3487328Y774715D01*
X3491646Y788177D01*
X3491646Y811037D01*
X3487328Y824753D01*
X3482756Y833643D01*
X3473612Y842787D01*
X3464468Y847359D01*
X3446180Y847359D01*
X3437290Y842787D01*
X3428146Y833643D01*
X3423574Y824753D01*
X3393602Y751855D02*
G01*
X3393602Y847359D01*
X3393602Y847359D02*
G01*
X3338992Y847359D01*
X3478977Y1021900D02*
G01*
X3478977Y1117356D01*
X3510795Y1021900D02*
G01*
X3447158Y1021900D01*
X3417158Y1021900D02*
G01*
X3353523Y1117356D01*
X3353523Y1021900D02*
G01*
X3417158Y1117356D01*
X3495438Y241917D02*
G01*
X3495438Y337421D01*
X3495438Y241917D02*
G01*
X3463688Y241917D01*
X3449972Y246489D01*
X3440828Y255633D01*
X3436256Y264523D01*
X3431684Y278239D01*
X3431684Y301099D01*
X3436256Y314561D01*
X3440828Y323705D01*
X3449972Y332849D01*
X3463688Y337421D01*
X3495438Y337421D01*
X3392568Y241917D02*
G01*
X3342784Y241917D01*
X3369962Y278239D01*
X3356246Y278239D01*
X3347102Y282811D01*
X3342784Y287383D01*
X3338212Y301099D01*
X3338212Y309989D01*
X3342784Y323705D01*
X3351674Y332849D01*
X3365390Y337421D01*
X3379106Y337421D01*
X3392568Y332849D01*
X3397140Y328277D01*
X3401712Y319133D01*
X3495395Y1902D02*
G01*
X3495395Y97358D01*
X3495395Y1902D02*
G01*
X3463577Y1902D01*
X3449942Y6449D01*
X3440849Y15539D01*
X3436305Y24630D01*
X3431758Y38265D01*
X3431758Y60993D01*
X3436305Y74630D01*
X3440849Y83720D01*
X3449942Y92811D01*
X3463577Y97358D01*
X3495395Y97358D01*
X3397214Y24630D02*
G01*
X3397214Y20083D01*
X3392667Y10993D01*
X3388123Y6449D01*
X3379033Y1902D01*
X3360849Y1902D01*
X3351758Y6449D01*
X3347214Y10993D01*
X3342667Y20083D01*
X3342667Y29174D01*
X3347214Y38265D01*
X3356305Y51902D01*
X3401758Y97358D01*
X3338123Y97358D01*
X3495395Y-508096D02*
G01*
X3495395Y-412640D01*
X3495395Y-508096D02*
G01*
X3463577Y-508096D01*
X3449942Y-503549D01*
X3440849Y-494459D01*
X3436305Y-485368D01*
X3431758Y-471733D01*
X3431758Y-449005D01*
X3436305Y-435368D01*
X3440849Y-426278D01*
X3449942Y-417187D01*
X3463577Y-412640D01*
X3495395Y-412640D01*
X3374486Y-508096D02*
G01*
X3388123Y-503549D01*
X3397214Y-489915D01*
X3401758Y-467187D01*
X3401758Y-453550D01*
X3397214Y-430824D01*
X3388123Y-417187D01*
X3374486Y-412640D01*
X3365395Y-412640D01*
X3351758Y-417187D01*
X3342667Y-430824D01*
X3338123Y-453550D01*
X3338123Y-467187D01*
X3342667Y-489915D01*
X3351758Y-503549D01*
X3365395Y-508096D01*
X3374486Y-508096D01*
X3495314Y-258076D02*
G01*
X3495314Y-162572D01*
X3495314Y-258076D02*
G01*
X3463564Y-258076D01*
X3449848Y-253504D01*
X3440958Y-244360D01*
X3436386Y-235470D01*
X3431814Y-221754D01*
X3431814Y-198894D01*
X3436386Y-185432D01*
X3440958Y-176288D01*
X3449848Y-167144D01*
X3463564Y-162572D01*
X3495314Y-162572D01*
X3401842Y-239788D02*
G01*
X3392698Y-244360D01*
X3378982Y-258076D01*
X3378982Y-162572D01*
X1056995Y503961D02*
G01*
X1056995Y599465D01*
X1056995Y503961D02*
G01*
X1020673Y599465D01*
X984351Y503961D02*
G01*
X1020673Y599465D01*
X984351Y503961D02*
G01*
X984351Y599465D01*
X954379Y503961D02*
G01*
X954379Y599465D01*
X860653Y517423D02*
G01*
X869797Y508533D01*
X883259Y503961D01*
X901547Y503961D01*
X915263Y508533D01*
X924153Y517423D01*
X924153Y526567D01*
X919835Y535711D01*
X915263Y540283D01*
X906119Y544855D01*
X878687Y553999D01*
X869797Y558317D01*
X865225Y562889D01*
X860653Y572033D01*
X860653Y585749D01*
X869797Y594893D01*
X883259Y599465D01*
X901547Y599465D01*
X915263Y594893D01*
X924153Y585749D01*
X803249Y503961D02*
G01*
X812393Y508533D01*
X821537Y517423D01*
X826109Y526567D01*
X830681Y540283D01*
X830681Y562889D01*
X826109Y576605D01*
X821537Y585749D01*
X812393Y594893D01*
X803249Y599465D01*
X785215Y599465D01*
X776071Y594893D01*
X766927Y585749D01*
X762355Y576605D01*
X757783Y562889D01*
X757783Y540283D01*
X762355Y526567D01*
X766927Y517423D01*
X776071Y508533D01*
X785215Y503961D01*
X803249Y503961D01*
X993241Y771423D02*
G01*
X1002385Y762533D01*
X1016101Y757961D01*
X1034389Y757961D01*
X1047851Y762533D01*
X1056995Y771423D01*
X1056995Y780567D01*
X1052423Y789711D01*
X1047851Y794283D01*
X1038707Y798855D01*
X1011529Y807999D01*
X1002385Y812317D01*
X997813Y816889D01*
X993241Y826033D01*
X993241Y839749D01*
X1002385Y848893D01*
X1016101Y853465D01*
X1034389Y853465D01*
X1047851Y848893D01*
X1056995Y839749D01*
X895197Y780567D02*
G01*
X899769Y771423D01*
X908913Y762533D01*
X917803Y757961D01*
X936091Y757961D01*
X945235Y762533D01*
X954379Y771423D01*
X958697Y780567D01*
X963269Y794283D01*
X963269Y816889D01*
X958697Y830605D01*
X954379Y839749D01*
X945235Y848893D01*
X936091Y853465D01*
X917803Y853465D01*
X908913Y848893D01*
X899769Y839749D01*
X895197Y830605D01*
X865225Y757961D02*
G01*
X865225Y853465D01*
X801471Y757961D02*
G01*
X865225Y821461D01*
X842365Y798855D02*
G01*
X801471Y853465D01*
X1056995Y1011961D02*
G01*
X1056995Y1107465D01*
X1056995Y1011961D02*
G01*
X1016101Y1011961D01*
X1002385Y1016533D01*
X997813Y1021105D01*
X993241Y1029995D01*
X993241Y1039139D01*
X997813Y1048283D01*
X1002385Y1052855D01*
X1016101Y1057427D01*
X1056995Y1057427D01*
X1025245Y1057427D02*
G01*
X993241Y1107465D01*
X963269Y1011961D02*
G01*
X899769Y1107465D01*
X899769Y1011961D02*
G01*
X963269Y1107465D01*
X1056995Y249961D02*
G01*
X1056995Y345465D01*
X1056995Y249961D02*
G01*
X1020673Y345465D01*
X984351Y249961D02*
G01*
X1020673Y345465D01*
X984351Y249961D02*
G01*
X984351Y345465D01*
X926947Y249961D02*
G01*
X936091Y254533D01*
X945235Y263423D01*
X949807Y272567D01*
X954379Y286283D01*
X954379Y308889D01*
X949807Y322605D01*
X945235Y331749D01*
X936091Y340893D01*
X926947Y345465D01*
X908913Y345465D01*
X899769Y340893D01*
X890625Y331749D01*
X886053Y322605D01*
X881481Y308889D01*
X881481Y286283D01*
X886053Y272567D01*
X890625Y263423D01*
X899769Y254533D01*
X908913Y249961D01*
X926947Y249961D01*
X788009Y263423D02*
G01*
X796899Y254533D01*
X810615Y249961D01*
X828903Y249961D01*
X842365Y254533D01*
X851509Y263423D01*
X851509Y272567D01*
X846937Y281711D01*
X842365Y286283D01*
X833475Y290855D01*
X806043Y299999D01*
X796899Y304317D01*
X792327Y308889D01*
X788009Y318033D01*
X788009Y331749D01*
X796899Y340893D01*
X810615Y345465D01*
X828903Y345465D01*
X842365Y340893D01*
X851509Y331749D01*
X757783Y249961D02*
G01*
X757783Y345465D01*
X1047851Y-4038D02*
G01*
X997813Y-4038D01*
X1025245Y32283D01*
X1011529Y32283D01*
X1002385Y36855D01*
X997813Y41427D01*
X993241Y54889D01*
X993241Y64033D01*
X997813Y77749D01*
X1006957Y86893D01*
X1020673Y91465D01*
X1034389Y91465D01*
X1047851Y86893D01*
X1052423Y82321D01*
X1056995Y73177D01*
X963269Y-4038D02*
G01*
X926947Y91465D01*
X890625Y-4038D02*
G01*
X926947Y91465D01*
X851509Y-4038D02*
G01*
X801471Y-4038D01*
X828903Y32283D01*
X815187Y32283D01*
X806043Y36855D01*
X801471Y41427D01*
X796899Y54889D01*
X796899Y64033D01*
X801471Y77749D01*
X810615Y86893D01*
X824331Y91465D01*
X837793Y91465D01*
X851509Y86893D01*
X856081Y82321D01*
X860653Y73177D01*
X1002385Y-512038D02*
G01*
X1047851Y-512038D01*
X1052423Y-471144D01*
X1047851Y-475716D01*
X1034389Y-480288D01*
X1020673Y-480288D01*
X1006957Y-475716D01*
X997813Y-466572D01*
X993241Y-453110D01*
X993241Y-443966D01*
X997813Y-430250D01*
X1006957Y-421106D01*
X1020673Y-416534D01*
X1034389Y-416534D01*
X1047851Y-421106D01*
X1052423Y-425678D01*
X1056995Y-434822D01*
X963269Y-512038D02*
G01*
X926947Y-416534D01*
X890625Y-512038D02*
G01*
X926947Y-416534D01*
X988923Y-235432D02*
G01*
X993241Y-244576D01*
X1002385Y-253466D01*
X1011529Y-258038D01*
X1029817Y-258038D01*
X1038707Y-253466D01*
X1047851Y-244576D01*
X1052423Y-235432D01*
X1056995Y-221716D01*
X1056995Y-199110D01*
X1052423Y-185394D01*
X1047851Y-176250D01*
X1038707Y-167106D01*
X1029817Y-162534D01*
X1011529Y-162534D01*
X1002385Y-167106D01*
X993241Y-176250D01*
X988923Y-185394D01*
X988923Y-199110D01*
X1011529Y-199110D02*
G01*
X988923Y-199110D01*
X958697Y-258038D02*
G01*
X958697Y-162534D01*
X958697Y-258038D02*
G01*
X895197Y-162534D01*
X895197Y-258038D02*
G01*
X895197Y-162534D01*
X865225Y-258038D02*
G01*
X865225Y-162534D01*
X865225Y-258038D02*
G01*
X833475Y-258038D01*
X819759Y-253466D01*
X810615Y-244576D01*
X806043Y-235432D01*
X801471Y-221716D01*
X801471Y-199110D01*
X806043Y-185394D01*
X810615Y-176250D01*
X819759Y-167106D01*
X833475Y-162534D01*
X865225Y-162534D01*
X2174722Y101320D02*
G01*
X2174722Y24866D01*
X2174722Y101320D02*
G01*
X2207234Y101320D01*
X2218156Y97764D01*
X2221966Y93954D01*
X2225522Y86842D01*
X2225522Y79476D01*
X2221966Y72110D01*
X2218156Y68554D01*
X2207234Y64998D01*
X2174722Y64998D02*
G01*
X2207234Y64998D01*
X2218156Y61442D01*
X2221966Y57632D01*
X2225522Y50520D01*
X2225522Y39598D01*
X2221966Y32232D01*
X2218156Y28676D01*
X2207234Y24866D01*
X2174722Y24866D01*
X2278608Y101320D02*
G01*
X2249398Y24866D01*
X2278608Y101320D02*
G01*
X2307564Y24866D01*
X2260320Y50520D02*
G01*
X2296896Y50520D01*
X2357094Y101320D02*
G01*
X2357094Y24866D01*
X2331694Y101320D02*
G01*
X2382494Y101320D01*
X2406624Y57632D02*
G01*
X2472156Y57632D01*
X2174722Y304495D02*
G01*
X2174722Y228041D01*
X2174722Y304495D02*
G01*
X2207234Y304495D01*
X2218156Y300939D01*
X2221966Y297129D01*
X2225522Y290017D01*
X2225522Y282651D01*
X2221966Y275539D01*
X2218156Y271729D01*
X2207234Y268173D01*
X2174722Y268173D02*
G01*
X2207234Y268173D01*
X2218156Y264617D01*
X2221966Y260807D01*
X2225522Y253695D01*
X2225522Y242773D01*
X2221966Y235407D01*
X2218156Y231851D01*
X2207234Y228041D01*
X2174722Y228041D01*
X2278608Y304495D02*
G01*
X2249398Y228041D01*
X2278608Y304495D02*
G01*
X2307564Y228041D01*
X2260320Y253695D02*
G01*
X2296896Y253695D01*
X2357094Y304495D02*
G01*
X2357094Y228041D01*
X2331694Y304495D02*
G01*
X2382494Y304495D01*
X2439390Y293573D02*
G01*
X2439390Y228041D01*
X2406624Y260807D02*
G01*
X2472156Y260807D01*
X1899767Y706399D02*
G01*
X1823313Y706399D01*
X1899767Y731799D02*
G01*
X1899767Y680999D01*
X1899767Y656869D02*
G01*
X1823313Y656869D01*
X1899767Y606069D02*
G01*
X1823313Y606069D01*
X1863445Y656869D02*
G01*
X1863445Y606069D01*
X1899767Y581939D02*
G01*
X1823313Y581939D01*
X1899767Y581939D02*
G01*
X1899767Y534695D01*
X1863445Y581939D02*
G01*
X1863445Y552983D01*
X1823313Y581939D02*
G01*
X1823313Y534695D01*
X1899767Y510819D02*
G01*
X1823313Y510819D01*
X1899767Y510819D02*
G01*
X1899767Y478053D01*
X1896211Y467131D01*
X1892401Y463321D01*
X1885289Y459765D01*
X1877923Y459765D01*
X1870557Y463321D01*
X1867001Y467131D01*
X1863445Y478053D01*
X1863445Y510819D01*
X1863445Y485165D02*
G01*
X1823313Y459765D01*
X1899767Y435889D02*
G01*
X1823313Y435889D01*
X1899767Y435889D02*
G01*
X1823313Y406679D01*
X1899767Y377723D02*
G01*
X1823313Y406679D01*
X1899767Y377723D02*
G01*
X1823313Y377723D01*
D14*
X2679395Y2776194D02*
G01*
X2679395Y2628841D01*
X2666695Y2814294D02*
G01*
X2666695Y2586507D01*
X2653995Y2852394D02*
G01*
X2653995Y2547594D01*
X4479391Y1076197D02*
G01*
X4479391Y928844D01*
X4466691Y1114297D02*
G01*
X4466691Y886510D01*
X4453991Y1152397D02*
G01*
X4453991Y847597D01*
X4479391Y4476191D02*
G01*
X4479391Y4328838D01*
X4466691Y4514291D02*
G01*
X4466691Y4286504D01*
X4453991Y4552391D02*
G01*
X4453991Y4247591D01*
X6379387Y2776194D02*
G01*
X6379387Y2628841D01*
X6366687Y2814294D02*
G01*
X6366687Y2586507D01*
X6353987Y2852394D02*
G01*
X6353987Y2547594D01*
X1291996Y4544390D02*
G01*
X1291996Y4480890D01*
X1291996Y5255590D02*
G01*
X1291996Y5319090D01*
X1167003Y5249976D02*
G01*
X1417015Y5249976D01*
X1417015Y4549978D01*
X1167003Y4549978D01*
X1167003Y5249976D01*
X2307996Y4544390D02*
G01*
X2307996Y4480890D01*
X2307996Y5255590D02*
G01*
X2307996Y5319090D01*
X2183002Y5249976D02*
G01*
X2433015Y5249976D01*
X2433015Y4549978D01*
X2183002Y4549978D01*
X2183002Y5249976D01*
X2815996Y4544390D02*
G01*
X2815996Y4480890D01*
X2815996Y5255590D02*
G01*
X2815996Y5319090D01*
X2691002Y5249976D02*
G01*
X2941015Y5249976D01*
X2941015Y4549978D01*
X2691002Y4549978D01*
X2691002Y5249976D01*
X3323996Y4544390D02*
G01*
X3323996Y4480890D01*
X3323996Y5255590D02*
G01*
X3323996Y5319090D01*
X3199002Y5249976D02*
G01*
X3449015Y5249976D01*
X3449015Y4549978D01*
X3199002Y4549978D01*
X3199002Y5249976D01*
X1799996Y4544390D02*
G01*
X1799996Y4480890D01*
X1799996Y5255590D02*
G01*
X1799996Y5319090D01*
X1675003Y5249976D02*
G01*
X1925015Y5249976D01*
X1925015Y4549978D01*
X1675003Y4549978D01*
X1675003Y5249976D01*
X1514195Y-749198D02*
G01*
X2885795Y-749198D01*
D15*
X3088995Y-589000D02*
G01*
X2834995Y-589000D01*
X2834995Y1188999D01*
X3088995Y1188999D01*
X3088995Y-589000D01*
D14*
X3088995Y-545998D02*
G01*
X3088995Y1147597D01*
D15*
X1310995Y1188999D02*
G01*
X1564995Y1188999D01*
X1564995Y-589000D01*
X1310995Y-589000D01*
X1310995Y1188999D01*
D14*
X2885795Y1360957D02*
G01*
X1514195Y1360957D01*
X1310995Y1147597D02*
G01*
X1310995Y-545998D01*
X2657195Y-157200D02*
G01*
X2657195Y-893800D01*
X1745919Y-893800D01*
X1745919Y-157200D01*
X2657195Y-157200D01*
G75*
G01*
X2399995Y2399995D02*
G03*
X2399261Y2399995I-367J299999D01*
G75*
G01*
X4199992Y699999D02*
G03*
X4199258Y699999I-367J299999D01*
G75*
G01*
X4199992Y4099992D02*
G03*
X4199258Y4099992I-367J299999D01*
G75*
G01*
X6099988Y2399995D02*
G03*
X6099254Y2399995I-367J299999D01*
G75*
G01*
X1310996Y-545998D02*
G03*
X1514196Y-749198I203200J0D01*
G75*
G01*
X2885796Y-749198D02*
G03*
X3088996Y-545998I0J203200D01*
G75*
G01*
X1514196Y1360957D02*
G03*
X1310996Y1147597I5068J-208269D01*
G75*
G01*
X3088996Y1147597D02*
G03*
X2885796Y1360957I-208269J5091D01*
G75*
G01
X4880991Y2653995D02*
G03X4880991Y2653995I-699999J0D01*
M02*
