M48
METRIC,LZ,000.000
;FILE_FORMAT=3:3
;TYPE=PLATED
;Layer: PTH_Through
;EasyEDA v6.5.54, 2026-09-21 19:42:41
;514c6cc1849444d89c4331f6548c3519,10
;Gerber Generator version 0.2
;Holesize 1 = 0.305 mm
T01C0.305
;Holesize 2 = 0.800 mm
T02C0.800
;Holesize 3 = 0.850 mm
T03C0.850
;Holesize 4 = 0.915 mm
T04C0.915
%
G05
G90
T01
X032650Y001729
X034657Y003313
T02
X012920Y054000
X012920Y044000
X023080Y054000
X023080Y044000
X028160Y054000
X028160Y044000
X033240Y054000
X033240Y044000
X018000Y054000
X018000Y044000
T03
X029622Y-004620G85X029617Y-004620
X014377Y008080G85X014382Y008080
X014377Y005540G85X014382Y005540
X014377Y003000G85X014382Y003000
X014377Y000460G85X014382Y000460
X014377Y-002080G85X014382Y-002080
X014377Y-004620G85X014382Y-004620
X014377Y010620G85X014382Y010620
X029622Y-002080G85X029617Y-002080
X029622Y000460G85X029617Y000460
X029622Y003000G85X029617Y003000
X029622Y005540G85X029617Y005540
X029622Y008080G85X029617Y008080
X029622Y010620G85X029617Y010620
T04
X022727Y027000G85X022732Y027000
X025267Y027000G85X025272Y027000
X040727Y010000G85X040732Y010000
X043267Y010000G85X043272Y010000
X040727Y044000G85X040732Y044000
X043267Y044000G85X043272Y044000
X059727Y027000G85X059732Y027000
X062267Y027000G85X062272Y027000
X072668Y-004878G85X072668Y-004872
X070128Y-004878G85X070128Y-004872
X038000Y029080
X038000Y026540
X038000Y024000
X045747Y024000
X045747Y026540
X045747Y029080
M30
